<?xml version="1.0" encoding="UTF-8" standalone="no"?>
<svg
   xmlns:dc="http://purl.org/dc/elements/1.1/"
   xmlns:cc="http://creativecommons.org/ns#"
   xmlns:rdf="http://www.w3.org/1999/02/22-rdf-syntax-ns#"
   xmlns:svg="http://www.w3.org/2000/svg"
   xmlns="http://www.w3.org/2000/svg"
   xmlns:sodipodi="http://sodipodi.sourceforge.net/DTD/sodipodi-0.dtd"
   xmlns:inkscape="http://www.inkscape.org/namespaces/inkscape"
   width="100mm"
   height="100mm"
   viewBox="0 0 100 100"
   version="1.1"
   id="svg8"
   inkscape:version="1.0 (4035a4fb49, 2020-05-01)"
   sodipodi:docname="gearSolid.svg">
  <defs
     id="defs2" />
  <sodipodi:namedview
     id="base"
     pagecolor="#2a2a2a"
     bordercolor="#666666"
     borderopacity="1.0"
     inkscape:pageopacity="0"
     inkscape:pageshadow="2"
     inkscape:zoom="1.4142136"
     inkscape:cx="101.65221"
     inkscape:cy="159.85554"
     inkscape:document-units="mm"
     inkscape:current-layer="layer1"
     inkscape:document-rotation="0"
     showgrid="false"
     inkscape:window-width="1920"
     inkscape:window-height="1017"
     inkscape:window-x="1912"
     inkscape:window-y="-8"
     inkscape:window-maximized="1" />
  <metadata
     id="metadata5">
    <rdf:RDF>
      <cc:Work
         rdf:about="">
        <dc:format>image/svg+xml</dc:format>
        <dc:type
           rdf:resource="http://purl.org/dc/dcmitype/StillImage" />
        <dc:title></dc:title>
      </cc:Work>
    </rdf:RDF>
  </metadata>
  <g
     inkscape:label="Layer 1"
     inkscape:groupmode="layer"
     id="layer1"
     style="display:inline">
    <path
       d="m 43.218421,3.1358948 c -2.297319,0 -3.164796,2.0704352 -4.146899,4.1475967 L 36.08113,13.60792 a 39.708617,38.835539 0 0 0 -10.971252,6.11253 l -6.632899,-0.544815 c -0.715508,-0.05872 -1.42505,-0.126566 -2.09726,-0.131709 -1.478862,-0.01131 -2.77797,0.281963 -3.567673,1.649999 l -3.3674728,5.833561 -0.046648,0.08068 -3.3674717,5.833561 c -1.1486592,1.98987 0.2105137,3.776639 1.5180348,5.665887 l 3.3888527,4.896535 a 39.708617,38.835539 0 0 0 -0.645796,6.975195 39.708617,38.835539 0 0 0 0.652113,7.007756 l -3.3951693,4.905286 c -1.3075214,1.88925 -2.6666939,3.675531 -1.5180348,5.665401 l 3.3674717,5.834047 0.046648,0.08068 3.3674724,5.83356 c 1.148658,1.989873 3.375309,1.706202 5.664933,1.518291 l 6.680519,-0.548702 a 39.708617,38.835539 0 0 0 10.900307,6.066357 l 3.013717,6.374488 c 0.982103,2.077162 1.84958,4.147597 4.146899,4.147597 h 6.734942 0.09329 6.734946 c 2.297312,0 3.164794,-2.070435 4.146896,-4.147597 l 3.013717,-6.374488 a 39.708617,38.835539 0 0 0 10.900794,-6.066357 l 6.680034,0.548702 c 2.289621,0.187913 4.516273,0.471582 5.664933,-1.518291 l 3.367472,-5.83356 0.04665,-0.08068 3.36747,-5.834047 c 1.148664,-1.989873 -0.210511,-3.776153 -1.51803,-5.665405 l -3.395171,-4.905285 a 39.708617,38.835539 0 0 0 0.652115,-7.007756 39.708617,38.835539 0 0 0 -0.645796,-6.975194 l 3.388852,-4.896536 c 1.307519,-1.88925 2.666694,-3.67553 1.518034,-5.665401 l -3.36747,-5.834047 -0.04665,-0.08068 -3.367472,-5.833561 c -0.789707,-1.368038 -2.088817,-1.661311 -3.567673,-1.649999 -0.672211,0.0052 -1.381755,0.07298 -2.097261,0.131709 l -6.63338,0.544814 A 39.708617,38.835539 0 0 0 63.918898,13.60792 L 60.928502,7.2834915 C 59.946401,5.20633 59.078919,3.1358948 56.781607,3.1358948 h -6.734946 -0.09329 z M 49.900883,21.89631 a 28.07823,28.082961 0 0 1 0.09913,0 28.07823,28.082961 0 0 1 28.0783,28.083031 28.07823,28.082961 0 0 1 -28.0783,28.08303 28.07823,28.082961 0 0 1 -28.078299,-28.08303 28.07823,28.082961 0 0 1 27.97917,-28.083031 z"
       style="fill:#ffffff;stroke:#ffffff;stroke-width:4.99999;stroke-linecap:round;stroke-linejoin:round;stroke-miterlimit:4;stroke-dasharray:none;stroke-opacity:1;paint-order:markers fill stroke;fill-opacity:1"
       id="path931" />
  </g>
</svg>
